<?xml version="1.0"?>
<!DOCTYPE svg PUBLIC "-//W3C//DTD SVG 1.1//EN" "http://www.w3.org/Graphics/SVG/1.1/DTD/svg11.dtd">
<!--Phoronix Test Suite v7.0.1 [ http://www.phoronix-test-suite.com/ ]-->
<svg xmlns="http://www.w3.org/2000/svg" xmlns:xlink="http://www.w3.org/1999/xlink" version="1.1" font-family="sans-serif, droid-sans, helvetica, verdana, tahoma" viewbox="0 0 600 182" width="600" height="182" preserveAspectRatio="xMinYMin meet"><rect x="0" y="0" width="600" height="182" fill="#FEFEFE" stroke="#757575" stroke-width="2"/><g stroke="#757575" stroke-width="1"><line x1="80" y1="64" x2="80" y2="111"/><line x1="80" y1="110" x2="586" y2="110"/></g><a xlink:href="http://www.phoronix-test-suite.com/" xlink:show="new"><text x="585" y="59" font-size="8" fill="#065695" text-anchor="end" xlink:show="new">PHORONIX-TEST-SUITE.COM</text></a><polygon points="80,56 89,60.5 89,51.5" fill="#065695" stroke="#949494" stroke-width="1"/><text x="92" y="59" font-size="8" fill="#065695" text-anchor="start">ms, Less Is Better</text><rect x="0" y="0" width="600" height="48" fill="#231f20"/><a xlink:href="http://openbenchmarking.org/test/pts/stockfish-1.0.0" xlink:show="new"><text x="6" y="19" font-size="17" fill="#FEFEFE" text-anchor="start" xlink:show="new" font-weight="bold">Stockfish v2014-11-26</text></a><text x="6" y="36" font-size="11" font-weight="bold" fill="#FEFEFE" text-anchor="start">Total Time</text><path d="m74 22v9m-5-16v16m-5-28v28m-23-2h12.5c2.485281 0 4.5-2.014719 4.5-4.5s-2.014719-4.5-4.5-4.5h-8c-2.485281 0-4.5-2.014719-4.5-4.5s2.014719-4.5 4.5-4.5h12.5m-21 5h-11m11 13h-2c-4.970563 0-9-4.029437-9-9v-20m-24 40v-20c0-4.970563 4.0294373-9 9-9 4.970563 0 9 4.029437 9 9s-4.029437 9-9 9h-9" stroke="#ffffff" stroke-width="4" fill="none" transform="translate(508,4)"/><g font-size="10" fill="#231f20" font-weight="bold"><text x="75" y="85" text-anchor="end">stockfishk</text></g><g font-size="10" fill="#065695" text-anchor="middle"><text x="166" y="125">15000</text><text x="250" y="125">30000</text><text x="334" y="125">45000</text><text x="418" y="125">60000</text><text x="502" y="125">75000</text></g><g stroke="#BABABA" stroke-width="1"><line x1="166" y1="64" x2="166" y2="105" stroke-dasharray="5,5"/><line x1="166" y1="106" x2="166" y2="115"/><line x1="250" y1="64" x2="250" y2="105" stroke-dasharray="5,5"/><line x1="250" y1="106" x2="250" y2="115"/><line x1="334" y1="64" x2="334" y2="105" stroke-dasharray="5,5"/><line x1="334" y1="106" x2="334" y2="115"/><line x1="418" y1="64" x2="418" y2="105" stroke-dasharray="5,5"/><line x1="418" y1="106" x2="418" y2="115"/><line x1="502" y1="64" x2="502" y2="105" stroke-dasharray="5,5"/><line x1="502" y1="106" x2="502" y2="115"/></g><g stroke="#949494" stroke-width="1"><rect x="80" y="70" height="34" width="404" fill="#2196f3" xlink:title="stockfishk: 72043"/></g><g font-size="8" fill="#065695" text-anchor="end"><text y="101" x="75">SE +/- 858.40</text></g><g font-size="10" fill="#FFFFFF" font-weight="bold" text-anchor="end"><text x="479" y="93">72043</text></g><g stroke="#757575" stroke-width="1"><line x1="479" y1="70" x2="479" y2="78"/><line x1="489" y1="70" x2="489" y2="78"/><line x1="479" y1="70" x2="489" y2="70"/></g><rect x="0" y="132" width="600" height="50" fill="#231f20"/><a xlink:href="http://www.phoronix-test-suite.com/" xlink:show="new"><text x="585" y="144" font-size="9" fill="#FEFEFE" text-anchor="end" xlink:show="new">Phoronix Test Suite 7.0.1</text></a><text x="5" y="158" font-size="8" fill="#FEFEFE" text-anchor="start" xlink:title="-lpthread -fno-exceptions -fno-rtti -ansi -pedantic -O3 -flto" width="595">1. (CXX) g++ options: -lpthread -fno-exceptions -fno-rtti -ansi -pedantic -O3 -flto</text></svg>
