<?xml version="1.0"?>
<!DOCTYPE svg PUBLIC "-//W3C//DTD SVG 1.1//EN" "http://www.w3.org/Graphics/SVG/1.1/DTD/svg11.dtd">
<!--Phoronix Test Suite v7.0.1 [ http://www.phoronix-test-suite.com/ ]-->
<svg xmlns="http://www.w3.org/2000/svg" xmlns:xlink="http://www.w3.org/1999/xlink" version="1.1" font-family="sans-serif, droid-sans, helvetica, verdana, tahoma" viewbox="0 0 382 454" width="382" height="454" preserveAspectRatio="xMinYMin meet"><rect x="0" y="0" width="382" height="454" fill="#FEFEFE" stroke="#757575" stroke-width="2"/><rect x="2" y="1" width="379" height="38" fill="#231f20" stroke="#757575" stroke-width="1"/><text x="191" y="19" font-size="17" fill="#FEFEFE" text-anchor="middle" font-weight="bold">tjbenchk</text><a xlink:href="http://www.phoronix-test-suite.com/" xlink:show="new"><text x="4" y="36" font-size="8" fill="#FEFEFE" text-anchor="start" xlink:show="new" font-weight="bold">PHORONIX-TEST-SUITE.COM</text></a><a xlink:href="http://www.phoronix-test-suite.com/" xlink:show="new"><text x="378" y="36" font-size="8" fill="#FEFEFE" text-anchor="end" xlink:show="new" font-weight="bold">Phoronix Test Suite 7.0.1</text></a><g fill="#949494"><rect x="0" y="55" width="382" height="16"/><rect x="0" y="87" width="382" height="16"/><rect x="0" y="119" width="382" height="16"/><rect x="0" y="151" width="382" height="16"/><rect x="0" y="183" width="382" height="16"/><rect x="0" y="215" width="382" height="16"/><rect x="0" y="247" width="382" height="16"/></g><g fill="none" stroke-width="1" stroke="#005a00"/><g font-size="10" fill="#065695" text-anchor="middle" font-weight="bold"><a xlink:href="http://openbenchmarking.org/s/ARMv7 rev 4 @ 1.20GHz (4 Cores)" xlink:show="new"><text x="191" y="52" xlink:title="Processor: ARMv7 rev 4 @ 1.20GHz (4 Cores)">ARMv7 rev 4 @ 1.20GHz (4 Cores)</text></a><a xlink:href="http://openbenchmarking.org/s/BCM2709 Raspberry Pi 3 Model B Rev 1.2" xlink:show="new"><text x="191" y="68" xlink:title="Motherboard: BCM2709 Raspberry Pi 3 Model B Rev 1.2">BCM2709 Raspberry Pi 3 Model B Rev 1.2</text></a><a xlink:href="http://openbenchmarking.org/s/925MB" xlink:show="new"><text x="191" y="84" xlink:title="Memory: 925MB">925MB</text></a><a xlink:href="http://openbenchmarking.org/s/31GB SA32G" xlink:show="new"><text x="191" y="100" xlink:title="Disk: 31GB SA32G">31GB SA32G</text></a><a xlink:href="http://openbenchmarking.org/s/LLVMpipe" xlink:show="new"><text x="191" y="116" xlink:title="Graphics: LLVMpipe">LLVMpipe</text></a><a xlink:href="http://openbenchmarking.org/s/Kali kali-rolling" xlink:show="new"><text x="191" y="132" xlink:title="OS: Kali kali-rolling">Kali kali-rolling</text></a><a xlink:href="http://openbenchmarking.org/s/4.4.50-v7 (armv7l)" xlink:show="new"><text x="191" y="148" xlink:title="Kernel: 4.4.50-v7 (armv7l)">4.4.50-v7 (armv7l)</text></a><a xlink:href="http://openbenchmarking.org/s/Xfce 4.12" xlink:show="new"><text x="191" y="164" xlink:title="Desktop: Xfce 4.12">Xfce 4.12</text></a><a xlink:href="http://openbenchmarking.org/s/X Server 1.19.2" xlink:show="new"><text x="191" y="180" xlink:title="Display Server: X Server 1.19.2">X Server 1.19.2</text></a><a xlink:href="http://openbenchmarking.org/s/modesetting 1.19.2" xlink:show="new"><text x="191" y="196" xlink:title="Display Driver: modesetting 1.19.2">modesetting 1.19.2</text></a><a xlink:href="http://openbenchmarking.org/s/3.3 Mesa 13.0.6 Gallium 0.4 (LLVM 3.9 128 bits)" xlink:show="new"><text x="191" y="212" xlink:title="OpenGL: 3.3 Mesa 13.0.6 Gallium 0.4 (LLVM 3.9 128 bits)">3.3 Mesa 13.0.6 Gallium 0.4 (LLVM 3.9 128 bits)</text></a><a xlink:href="http://openbenchmarking.org/s/GCC 6.3.0 20170516" xlink:show="new"><text x="191" y="228" xlink:title="Compiler: GCC 6.3.0 20170516">GCC 6.3.0 20170516</text></a><a xlink:href="http://openbenchmarking.org/s/ext4" xlink:show="new"><text x="191" y="244" xlink:title="File-System: ext4">ext4</text></a><a xlink:href="http://openbenchmarking.org/s/1600x900" xlink:show="new"><text x="191" y="260" xlink:title="Screen Resolution: 1600x900">1600x900</text></a></g><g font-size="7" fill="#065695" text-anchor="end"><text x="378" y="48">Processor</text><text x="378" y="64">Motherboard</text><text x="378" y="80">Memory</text><text x="378" y="96">Disk</text><text x="378" y="112">Graphics</text><text x="378" y="128">OS</text><text x="378" y="144">Kernel</text><text x="378" y="160">Desktop</text><text x="378" y="176">Display Server</text><text x="378" y="192">Display Driver</text><text x="378" y="208">OpenGL</text><text x="378" y="224">Compiler</text><text x="378" y="240">File-System</text><text x="378" y="256">Screen Resolution</text></g><g stroke="#757575" stroke-width="1"><line x1="0" y1="39" x2="382" y2="39"/><line x1="0" y1="55" x2="382" y2="55"/><line x1="0" y1="71" x2="382" y2="71"/><line x1="0" y1="87" x2="382" y2="87"/><line x1="0" y1="103" x2="382" y2="103"/><line x1="0" y1="119" x2="382" y2="119"/><line x1="0" y1="135" x2="382" y2="135"/><line x1="0" y1="151" x2="382" y2="151"/><line x1="0" y1="167" x2="382" y2="167"/><line x1="0" y1="183" x2="382" y2="183"/><line x1="0" y1="199" x2="382" y2="199"/><line x1="0" y1="215" x2="382" y2="215"/><line x1="0" y1="231" x2="382" y2="231"/><line x1="0" y1="247" x2="382" y2="247"/></g><rect x="1" y="263" width="380" height="191" fill="#231f20"/><text x="4" y="284" font-size="9" fill="#FEFEFE" text-anchor="start" xlink:title=""><tspan x="4" y="284" dx="0" dy="0">- --build=arm-linux-gnueabihf --disable-browser-plugin</tspan><tspan x="4" y="284" dx="5" dy="10"> --disable-libitm --disable-libquadmath --disable-sjlj-exceptions</tspan><tspan x="4" y="284" dx="5" dy="20"> --enable-checking=release --enable-clocale=gnu --enable-default-pie</tspan><tspan x="4" y="284" dx="5" dy="30"> --enable-gnu-unique-object --enable-gtk-cairo --enable-java-awt=gtk</tspan><tspan x="4" y="284" dx="5" dy="40"> --enable-java-home</tspan><tspan x="4" y="284" dx="5" dy="50"> --enable-languages=c,ada,c++,java,go,d,fortran,objc,obj-c++</tspan><tspan x="4" y="284" dx="5" dy="60"> --enable-libstdcxx-debug --enable-libstdcxx-time=yes</tspan><tspan x="4" y="284" dx="5" dy="70"> --enable-multiarch --enable-nls --enable-objc-gc=auto</tspan><tspan x="4" y="284" dx="5" dy="80"> --enable-plugin --enable-shared --enable-threads=posix</tspan><tspan x="4" y="284" dx="5" dy="90"> --host=arm-linux-gnueabihf --program-prefix=arm-linux-gnueabihf-</tspan><tspan x="4" y="284" dx="5" dy="100"> --target=arm-linux-gnueabihf --with-arch-directory=arm</tspan><tspan x="4" y="284" dx="5" dy="110"> --with-arch=armv7-a --with-default-libstdcxx-abi=new</tspan><tspan x="4" y="284" dx="5" dy="120"> --with-float=hard --with-fpu=vfpv3-d16 --with-mode=thumb</tspan><tspan x="4" y="284" dx="5" dy="130"> --with-target-system-zlib -v </tspan></text><text x="4" y="438" font-size="9" fill="#FEFEFE" text-anchor="start" width="378">- Scaling Governor: BCM2835 Freq powersave</text></svg>
