<?xml version="1.0"?>
<!DOCTYPE svg PUBLIC "-//W3C//DTD SVG 1.1//EN" "http://www.w3.org/Graphics/SVG/1.1/DTD/svg11.dtd">
<!--Phoronix Test Suite v6.6.0 [ http://www.phoronix-test-suite.com/ ]-->
<svg xmlns="http://www.w3.org/2000/svg" xmlns:xlink="http://www.w3.org/1999/xlink" version="1.1" font-family="sans-serif, droid-sans, helvetica, verdana, tahoma" viewbox="0 0 297 105" width="297" height="105" preserveAspectRatio="xMinYMin meet"><rect x="0" y="0" width="297" height="105" fill="#FEFEFE" stroke="#757575" stroke-width="2"/><rect x="1" y="1" width="296" height="104" fill="#FEFEFE" stroke="#757575" stroke-width="1"/><path d="m74 22v9m-5-16v16m-5-28v28m-23-2h12.5c2.485281 0 4.5-2.014719 4.5-4.5s-2.014719-4.5-4.5-4.5h-8c-2.485281 0-4.5-2.014719-4.5-4.5s2.014719-4.5 4.5-4.5h12.5m-21 5h-11m11 13h-2c-4.970563 0-9-4.029437-9-9v-20m-24 40v-20c0-4.970563 4.0294373-9 9-9 4.970563 0 9 4.029437 9 9s-4.029437 9-9 9h-9" stroke="#000000" stroke-width="4" fill="none" transform="translate(82,28)"/><line x1="244" y1="57" x2="297" y2="57" stroke="#BABABA" stroke-width="64" stroke-dasharray="53,53"/><line x1="149" y1="73" x2="149" y2="89" stroke="#949494" stroke-width="297" stroke-dasharray="16,16"/><line x1="244" y1="57" x2="297" y2="57" stroke="#757575" stroke-width="64" stroke-dasharray="1,52"/><rect x="1" y="1" width="295" height="25" fill="#231f20"/><text x="5" y="19" font-size="17" fill="#FEFEFE" text-anchor="start">gpblur</text><line x1="1" y1="25" x2="296" y2="25" stroke="#757575" stroke-width="1"/><g font-size="10" font-weight="bold" text-anchor="end" fill="#065695"><a xlink:href="http://openbenchmarking.org/test/pts/graphics-magick-1.6.1" xlink:show="new"><text x="242" y="85" fill="#065695">graphics-magick: Operation: Blur</text></a></g><g font-size="10" fill="#065695" font-weight="bold" text-anchor="middle" dominant-baseline="text-before-edge"><text x="270.5" y="49">gpblur</text></g><g/><g text-anchor="middle" font-size="10"><text x="270.5" y="86" fill="#065695">17</text></g><line x1="149" y1="73" x2="149" y2="89" stroke="#949494" stroke-width="297" stroke-dasharray="1,15"/><rect x="0" y="89" width="297" height="16" fill="#231f20"/><a xlink:href="http://www.phoronix-test-suite.com/" xlink:show="new"><text x="295" y="102" font-size="10" fill="#FFFFFF" text-anchor="end" xlink:show="new">PHORONIX-TEST-SUITE.COM</text></a></svg>
