<?xml version="1.0"?>
<!DOCTYPE svg PUBLIC "-//W3C//DTD SVG 1.1//EN" "http://www.w3.org/Graphics/SVG/1.1/DTD/svg11.dtd">
<!--Phoronix Test Suite v7.0.1 [ http://www.phoronix-test-suite.com/ ]-->
<svg xmlns="http://www.w3.org/2000/svg" xmlns:xlink="http://www.w3.org/1999/xlink" version="1.1" font-family="sans-serif, droid-sans, helvetica, verdana, tahoma" viewbox="0 0 600 149" width="600" height="149" preserveAspectRatio="xMinYMin meet"><rect x="0" y="0" width="600" height="149" fill="#FEFEFE" stroke="#757575" stroke-width="2"/><g stroke="#757575" stroke-width="1"><line x1="95" y1="64" x2="95" y2="111"/><line x1="95" y1="110" x2="586" y2="110"/></g><a xlink:href="http://www.phoronix-test-suite.com/" xlink:show="new"><text x="585" y="59" font-size="8" fill="#065695" text-anchor="end" xlink:show="new">PHORONIX-TEST-SUITE.COM</text></a><polygon points="95,56 104,60.5 104,51.5" fill="#065695" stroke="#949494" stroke-width="1"/><text x="107" y="59" font-size="8" fill="#065695" text-anchor="start">Seconds, Less Is Better</text><rect x="0" y="0" width="600" height="48" fill="#231f20"/><a xlink:href="http://openbenchmarking.org/test/pts/build-mplayer-1.3.0" xlink:show="new"><text x="6" y="19" font-size="17" fill="#FEFEFE" text-anchor="start" xlink:show="new" font-weight="bold">Timed MPlayer Compilation v1.0-rc3</text></a><text x="6" y="36" font-size="11" font-weight="bold" fill="#FEFEFE" text-anchor="start">Time To Compile</text><path d="m74 22v9m-5-16v16m-5-28v28m-23-2h12.5c2.485281 0 4.5-2.014719 4.5-4.5s-2.014719-4.5-4.5-4.5h-8c-2.485281 0-4.5-2.014719-4.5-4.5s2.014719-4.5 4.5-4.5h12.5m-21 5h-11m11 13h-2c-4.970563 0-9-4.029437-9-9v-20m-24 40v-20c0-4.970563 4.0294373-9 9-9 4.970563 0 9 4.029437 9 9s-4.029437 9-9 9h-9" stroke="#ffffff" stroke-width="4" fill="none" transform="translate(508,4)"/><g font-size="10" fill="#231f20" font-weight="bold"><text x="90" y="85" text-anchor="end">mplayerbuild</text></g><g font-size="10" fill="#065695" text-anchor="middle"><text x="179" y="125">110</text><text x="261" y="125">220</text><text x="343" y="125">330</text><text x="425" y="125">440</text><text x="507" y="125">550</text></g><g stroke="#BABABA" stroke-width="1"><line x1="179" y1="64" x2="179" y2="105" stroke-dasharray="5,5"/><line x1="179" y1="106" x2="179" y2="115"/><line x1="261" y1="64" x2="261" y2="105" stroke-dasharray="5,5"/><line x1="261" y1="106" x2="261" y2="115"/><line x1="343" y1="64" x2="343" y2="105" stroke-dasharray="5,5"/><line x1="343" y1="106" x2="343" y2="115"/><line x1="425" y1="64" x2="425" y2="105" stroke-dasharray="5,5"/><line x1="425" y1="106" x2="425" y2="115"/><line x1="507" y1="64" x2="507" y2="105" stroke-dasharray="5,5"/><line x1="507" y1="106" x2="507" y2="115"/></g><g stroke="#949494" stroke-width="1"><rect x="95" y="70" height="34" width="368" fill="#2196f3" xlink:title="mplayerbuild: 495.85"/></g><g font-size="8" fill="#065695" text-anchor="end"><text y="101" x="90">SE +/- 7.53</text></g><g font-size="10" fill="#FFFFFF" font-weight="bold" text-anchor="end"><text x="458" y="93">495.85</text></g><g stroke="#757575" stroke-width="1"><line x1="457" y1="70" x2="457" y2="78"/><line x1="469" y1="70" x2="469" y2="78"/><line x1="457" y1="70" x2="469" y2="70"/></g><rect x="0" y="132" width="600" height="17" fill="#231f20"/><a xlink:href="http://www.phoronix-test-suite.com/" xlink:show="new"><text x="585" y="144" font-size="9" fill="#FEFEFE" text-anchor="end" xlink:show="new">Phoronix Test Suite 7.0.1</text></a></svg>
